{
	"asset":{
		"generator":"Khronos glTF Blender I/O v4.4.56",
		"version":"2.0"
	},
	"extensionsUsed":[
		"KHR_materials_specular",
		"KHR_materials_ior"
	],
	"scene":0,
	"scenes":[
		{
			"name":"Scene",
			"nodes":[
				0,
				1
			]
		}
	],
	"nodes":[
		{
			"camera":0,
			"name":"Camera",
			"rotation":[
				-0.20997299253940582,
				0.3857799470424652,
				0.09062844514846802,
				0.8937962055206299
			],
			"translation":[
				7.358891487121582,
				4.958309173583984,
				6.925790786743164
			]
		},
		{
			"mesh":0,
			"name":"Plane-col",
			"scale":[
				3,
				3,
				3
			]
		}
	],
	"cameras":[
		{
			"name":"Camera",
			"perspective":{
				"aspectRatio":1.7777777777777777,
				"yfov":0.39959652046304894,
				"zfar":100,
				"znear":0.10000000149011612
			},
			"type":"perspective"
		}
	],
	"materials":[
		{
			"doubleSided":true,
			"extensions":{
				"KHR_materials_specular":{
					"specularColorFactor":[
						0.8304001688957214,
						0.8299173712730408,
						0.833310604095459
					]
				},
				"KHR_materials_ior":{
					"ior":1.4500000476837158
				}
			},
			"name":"Material",
			"pbrMetallicRoughness":{
				"baseColorFactor":[
					0.002838702639564872,
					0,
					0.01995074562728405,
					1
				],
				"metallicFactor":0.33181819319725037,
				"roughnessFactor":0.5
			}
		}
	],
	"meshes":[
		{
			"name":"Plane.002",
			"primitives":[
				{
					"attributes":{
						"POSITION":0,
						"NORMAL":1,
						"TEXCOORD_0":2,
						"TANGENT":3
					},
					"indices":4,
					"material":0
				}
			]
		}
	],
	"accessors":[
		{
			"bufferView":0,
			"componentType":5126,
			"count":262144,
			"max":[
				1,
				0.815065860748291,
				1
			],
			"min":[
				-1,
				0.20784004032611847,
				-1
			],
			"type":"VEC3"
		},
		{
			"bufferView":1,
			"componentType":5126,
			"count":262144,
			"type":"VEC3"
		},
		{
			"bufferView":2,
			"componentType":5126,
			"count":262144,
			"type":"VEC2"
		},
		{
			"bufferView":3,
			"componentType":5126,
			"count":262144,
			"type":"VEC4"
		},
		{
			"bufferView":4,
			"componentType":5125,
			"count":393216,
			"type":"SCALAR"
		}
	],
	"bufferViews":[
		{
			"buffer":0,
			"byteLength":3145728,
			"byteOffset":0,
			"target":34962
		},
		{
			"buffer":0,
			"byteLength":3145728,
			"byteOffset":3145728,
			"target":34962
		},
		{
			"buffer":0,
			"byteLength":2097152,
			"byteOffset":6291456,
			"target":34962
		},
		{
			"buffer":0,
			"byteLength":4194304,
			"byteOffset":8388608,
			"target":34962
		},
		{
			"buffer":0,
			"byteLength":1572864,
			"byteOffset":12582912,
			"target":34963
		}
	],
	"buffers":[
		{
			"byteLength":14155776,
			"uri":"3-tall-40ddf14223665334cd8771c1587d7d93.bin"
		}
	]
}
