{
	"asset":{
		"generator":"Khronos glTF Blender I/O v4.4.56",
		"version":"2.0"
	},
	"scene":0,
	"scenes":[
		{
			"name":"Scene",
			"nodes":[
				0,
				1,
				2,
				3,
				4,
				5,
				6,
				7,
				8,
				9,
				10,
				11,
				12,
				13,
				14,
				15,
				16
			]
		}
	],
	"nodes":[
		{
			"mesh":0,
			"name":"Cube"
		},
		{
			"mesh":1,
			"name":"Cube.001",
			"scale":[
				1,
				0.33000001311302185,
				0.40000003576278687
			],
			"translation":[
				-24,
				-0.8412968516349792,
				-0.6990740895271301
			]
		},
		{
			"mesh":2,
			"name":"Cube.002",
			"scale":[
				1.149999976158142,
				0.15000000596046448,
				1.149999976158142
			],
			"translation":[
				0,
				1,
				0
			]
		},
		{
			"mesh":3,
			"name":"Cube.003",
			"translation":[
				-1,
				-0.5,
				0
			]
		},
		{
			"mesh":4,
			"name":"Cube.004"
		},
		{
			"mesh":5,
			"name":"Right_tall_pillar",
			"scale":[
				1,
				3,
				1
			],
			"translation":[
				-5,
				0.5,
				0
			]
		},
		{
			"mesh":6,
			"name":"Right_tall_pillar_caps",
			"scale":[
				1.149999976158142,
				0.15000000596046448,
				1.149999976158142
			],
			"translation":[
				-5,
				2,
				0
			]
		},
		{
			"mesh":7,
			"name":"Left_tall_pillar",
			"scale":[
				1,
				3,
				1
			],
			"translation":[
				16,
				0.5,
				0
			]
		},
		{
			"mesh":8,
			"name":"Left_tall_pillar_caps",
			"scale":[
				1.149999976158142,
				0.15000000596046448,
				1.149999976158142
			],
			"translation":[
				16,
				2,
				0
			]
		},
		{
			"mesh":9,
			"name":"Right_tall_pillar.002",
			"scale":[
				1,
				1.5,
				1
			],
			"translation":[
				17,
				-0.25,
				-0.23482537269592285
			]
		},
		{
			"mesh":10,
			"name":"Left_tall_pillar_caps.001",
			"scale":[
				1.149999976158142,
				0.25,
				1.149999976158142
			],
			"translation":[
				17,
				0.5600000023841858,
				-0.23482540249824524
			]
		},
		{
			"mesh":11,
			"name":"Right_tall_pillar.003",
			"scale":[
				1,
				1.5,
				1
			],
			"translation":[
				-6,
				-0.25,
				-0.23289194703102112
			]
		},
		{
			"mesh":12,
			"name":"Left_tall_pillar_caps.002",
			"scale":[
				1.149999976158142,
				0.25,
				1.149999976158142
			],
			"translation":[
				-6,
				0.5600000023841858,
				-0.2328919768333435
			]
		},
		{
			"mesh":13,
			"name":"Cube.005",
			"translation":[
				14,
				-0.5,
				0
			]
		},
		{
			"mesh":14,
			"name":"Cube.006",
			"translation":[
				-4,
				-0.5,
				0
			]
		},
		{
			"mesh":15,
			"name":"Cube.007",
			"scale":[
				60,
				1,
				0.4100000262260437
			],
			"translation":[
				4,
				-0.25,
				4
			]
		},
		{
			"mesh":16,
			"name":"Cube.008",
			"scale":[
				60,
				0.33000001311302185,
				0.5600000619888306
			],
			"translation":[
				4,
				0.42000001668930054,
				4
			]
		}
	],
	"materials":[
		{
			"doubleSided":true,
			"name":"Material.002",
			"pbrMetallicRoughness":{
				"baseColorFactor":[
					0.26204416155815125,
					0.26204416155815125,
					0.26204416155815125,
					1
				],
				"metallicFactor":0,
				"roughnessFactor":0.1499999761581421
			}
		}
	],
	"meshes":[
		{
			"name":"Cube.001",
			"primitives":[
				{
					"attributes":{
						"POSITION":0,
						"NORMAL":1,
						"TEXCOORD_0":2,
						"TANGENT":3
					},
					"indices":4
				}
			]
		},
		{
			"name":"Cube.002",
			"primitives":[
				{
					"attributes":{
						"POSITION":5,
						"NORMAL":6,
						"TEXCOORD_0":7,
						"TANGENT":8
					},
					"indices":9
				}
			]
		},
		{
			"name":"Cube.003",
			"primitives":[
				{
					"attributes":{
						"POSITION":10,
						"NORMAL":11,
						"TEXCOORD_0":12,
						"TANGENT":13
					},
					"indices":14
				}
			]
		},
		{
			"name":"Cube.004",
			"primitives":[
				{
					"attributes":{
						"POSITION":15,
						"NORMAL":16,
						"TEXCOORD_0":17,
						"TANGENT":18
					},
					"indices":19,
					"material":0
				}
			]
		},
		{
			"name":"Cube.005",
			"primitives":[
				{
					"attributes":{
						"POSITION":20,
						"NORMAL":21,
						"TEXCOORD_0":22
					},
					"indices":23
				}
			]
		},
		{
			"name":"Cube.006",
			"primitives":[
				{
					"attributes":{
						"POSITION":24,
						"NORMAL":25,
						"TEXCOORD_0":26,
						"TANGENT":27
					},
					"indices":28
				}
			]
		},
		{
			"name":"Cube.007",
			"primitives":[
				{
					"attributes":{
						"POSITION":29,
						"NORMAL":30,
						"TEXCOORD_0":31,
						"TANGENT":32
					},
					"indices":33
				}
			]
		},
		{
			"name":"Cube.008",
			"primitives":[
				{
					"attributes":{
						"POSITION":34,
						"NORMAL":35,
						"TEXCOORD_0":36,
						"TANGENT":37
					},
					"indices":28
				}
			]
		},
		{
			"name":"Cube.009",
			"primitives":[
				{
					"attributes":{
						"POSITION":38,
						"NORMAL":39,
						"TEXCOORD_0":40,
						"TANGENT":41
					},
					"indices":33
				}
			]
		},
		{
			"name":"Cube.011",
			"primitives":[
				{
					"attributes":{
						"POSITION":42,
						"NORMAL":43,
						"TEXCOORD_0":44,
						"TANGENT":45
					},
					"indices":28
				}
			]
		},
		{
			"name":"Cube.012",
			"primitives":[
				{
					"attributes":{
						"POSITION":46,
						"NORMAL":47,
						"TEXCOORD_0":48,
						"TANGENT":49
					},
					"indices":50
				}
			]
		},
		{
			"name":"Cube.013",
			"primitives":[
				{
					"attributes":{
						"POSITION":51,
						"NORMAL":52,
						"TEXCOORD_0":53,
						"TANGENT":54
					},
					"indices":28
				}
			]
		},
		{
			"name":"Cube.014",
			"primitives":[
				{
					"attributes":{
						"POSITION":55,
						"NORMAL":56,
						"TEXCOORD_0":57,
						"TANGENT":58
					},
					"indices":50
				}
			]
		},
		{
			"name":"Cube.016",
			"primitives":[
				{
					"attributes":{
						"POSITION":59,
						"NORMAL":60,
						"TEXCOORD_0":61,
						"TANGENT":62
					},
					"indices":63
				}
			]
		},
		{
			"name":"Cube.017",
			"primitives":[
				{
					"attributes":{
						"POSITION":64,
						"NORMAL":65,
						"TEXCOORD_0":66,
						"TANGENT":67
					},
					"indices":68
				}
			]
		},
		{
			"name":"Cube.018",
			"primitives":[
				{
					"attributes":{
						"POSITION":69,
						"NORMAL":70,
						"TEXCOORD_0":71,
						"TANGENT":72
					},
					"indices":28
				}
			]
		},
		{
			"name":"Cube.019",
			"primitives":[
				{
					"attributes":{
						"POSITION":73,
						"NORMAL":74,
						"TEXCOORD_0":75,
						"TANGENT":76
					},
					"indices":28
				}
			]
		}
	],
	"accessors":[
		{
			"bufferView":0,
			"componentType":5126,
			"count":280,
			"max":[
				12.5,
				1,
				0.5
			],
			"min":[
				-0.5,
				-1,
				-0.5
			],
			"type":"VEC3"
		},
		{
			"bufferView":1,
			"componentType":5126,
			"count":280,
			"type":"VEC3"
		},
		{
			"bufferView":2,
			"componentType":5126,
			"count":280,
			"type":"VEC2"
		},
		{
			"bufferView":3,
			"componentType":5126,
			"count":280,
			"type":"VEC4"
		},
		{
			"bufferView":4,
			"componentType":5123,
			"count":420,
			"type":"SCALAR"
		},
		{
			"bufferView":5,
			"componentType":5126,
			"count":12960,
			"max":[
				60.975032806396484,
				0.5,
				0.5
			],
			"min":[
				-0.5,
				-0.5,
				-0.5
			],
			"type":"VEC3"
		},
		{
			"bufferView":6,
			"componentType":5126,
			"count":12960,
			"type":"VEC3"
		},
		{
			"bufferView":7,
			"componentType":5126,
			"count":12960,
			"type":"VEC2"
		},
		{
			"bufferView":8,
			"componentType":5126,
			"count":12960,
			"type":"VEC4"
		},
		{
			"bufferView":9,
			"componentType":5123,
			"count":19440,
			"type":"SCALAR"
		},
		{
			"bufferView":10,
			"componentType":5126,
			"count":280,
			"max":[
				10.934782028198242,
				0.5,
				0.5
			],
			"min":[
				-0.5,
				-0.5,
				-0.5
			],
			"type":"VEC3"
		},
		{
			"bufferView":11,
			"componentType":5126,
			"count":280,
			"type":"VEC3"
		},
		{
			"bufferView":12,
			"componentType":5126,
			"count":280,
			"type":"VEC2"
		},
		{
			"bufferView":13,
			"componentType":5126,
			"count":280,
			"type":"VEC4"
		},
		{
			"bufferView":14,
			"componentType":5123,
			"count":420,
			"type":"SCALAR"
		},
		{
			"bufferView":15,
			"componentType":5126,
			"count":192,
			"max":[
				14.5,
				0.5,
				0.5
			],
			"min":[
				-0.5,
				-0.5,
				-0.5
			],
			"type":"VEC3"
		},
		{
			"bufferView":16,
			"componentType":5126,
			"count":192,
			"type":"VEC3"
		},
		{
			"bufferView":17,
			"componentType":5126,
			"count":192,
			"type":"VEC2"
		},
		{
			"bufferView":18,
			"componentType":5126,
			"count":192,
			"type":"VEC4"
		},
		{
			"bufferView":19,
			"componentType":5123,
			"count":288,
			"type":"SCALAR"
		},
		{
			"bufferView":20,
			"componentType":5126,
			"count":362,
			"max":[
				15.496333122253418,
				0.07500000298023224,
				0.574999988079071
			],
			"min":[
				-4.550000190734863,
				-0.07500000298023224,
				-0.574999988079071
			],
			"type":"VEC3"
		},
		{
			"bufferView":21,
			"componentType":5126,
			"count":362,
			"type":"VEC3"
		},
		{
			"bufferView":22,
			"componentType":5126,
			"count":362,
			"type":"VEC2"
		},
		{
			"bufferView":23,
			"componentType":5123,
			"count":546,
			"type":"SCALAR"
		},
		{
			"bufferView":24,
			"componentType":5126,
			"count":24,
			"max":[
				0.5,
				0.5,
				0.5
			],
			"min":[
				-0.5,
				-0.5,
				-0.5
			],
			"type":"VEC3"
		},
		{
			"bufferView":25,
			"componentType":5126,
			"count":24,
			"type":"VEC3"
		},
		{
			"bufferView":26,
			"componentType":5126,
			"count":24,
			"type":"VEC2"
		},
		{
			"bufferView":27,
			"componentType":5126,
			"count":24,
			"type":"VEC4"
		},
		{
			"bufferView":28,
			"componentType":5123,
			"count":36,
			"type":"SCALAR"
		},
		{
			"bufferView":29,
			"componentType":5126,
			"count":80,
			"max":[
				0.5,
				1.7000000476837158,
				0.5
			],
			"min":[
				-0.5,
				-0.5,
				-0.5
			],
			"type":"VEC3"
		},
		{
			"bufferView":30,
			"componentType":5126,
			"count":80,
			"type":"VEC3"
		},
		{
			"bufferView":31,
			"componentType":5126,
			"count":80,
			"type":"VEC2"
		},
		{
			"bufferView":32,
			"componentType":5126,
			"count":80,
			"type":"VEC4"
		},
		{
			"bufferView":33,
			"componentType":5123,
			"count":120,
			"type":"SCALAR"
		},
		{
			"bufferView":34,
			"componentType":5126,
			"count":24,
			"max":[
				0.5,
				0.5,
				0.5
			],
			"min":[
				-0.5,
				-0.5,
				-0.5
			],
			"type":"VEC3"
		},
		{
			"bufferView":35,
			"componentType":5126,
			"count":24,
			"type":"VEC3"
		},
		{
			"bufferView":36,
			"componentType":5126,
			"count":24,
			"type":"VEC2"
		},
		{
			"bufferView":37,
			"componentType":5126,
			"count":24,
			"type":"VEC4"
		},
		{
			"bufferView":38,
			"componentType":5126,
			"count":80,
			"max":[
				0.5,
				1.7000000476837158,
				0.5
			],
			"min":[
				-0.5,
				-0.5,
				-0.5
			],
			"type":"VEC3"
		},
		{
			"bufferView":39,
			"componentType":5126,
			"count":80,
			"type":"VEC3"
		},
		{
			"bufferView":40,
			"componentType":5126,
			"count":80,
			"type":"VEC2"
		},
		{
			"bufferView":41,
			"componentType":5126,
			"count":80,
			"type":"VEC4"
		},
		{
			"bufferView":42,
			"componentType":5126,
			"count":24,
			"max":[
				0.5,
				0.5,
				0.5
			],
			"min":[
				-0.5,
				-0.5,
				-0.5
			],
			"type":"VEC3"
		},
		{
			"bufferView":43,
			"componentType":5126,
			"count":24,
			"type":"VEC3"
		},
		{
			"bufferView":44,
			"componentType":5126,
			"count":24,
			"type":"VEC2"
		},
		{
			"bufferView":45,
			"componentType":5126,
			"count":24,
			"type":"VEC4"
		},
		{
			"bufferView":46,
			"componentType":5126,
			"count":40,
			"max":[
				0.5,
				0.5,
				0.5
			],
			"min":[
				-0.5,
				-0.5,
				-0.5
			],
			"type":"VEC3"
		},
		{
			"bufferView":47,
			"componentType":5126,
			"count":40,
			"type":"VEC3"
		},
		{
			"bufferView":48,
			"componentType":5126,
			"count":40,
			"type":"VEC2"
		},
		{
			"bufferView":49,
			"componentType":5126,
			"count":40,
			"type":"VEC4"
		},
		{
			"bufferView":50,
			"componentType":5123,
			"count":60,
			"type":"SCALAR"
		},
		{
			"bufferView":51,
			"componentType":5126,
			"count":24,
			"max":[
				0.5,
				0.5,
				0.5
			],
			"min":[
				-0.5,
				-0.5,
				-0.5
			],
			"type":"VEC3"
		},
		{
			"bufferView":52,
			"componentType":5126,
			"count":24,
			"type":"VEC3"
		},
		{
			"bufferView":53,
			"componentType":5126,
			"count":24,
			"type":"VEC2"
		},
		{
			"bufferView":54,
			"componentType":5126,
			"count":24,
			"type":"VEC4"
		},
		{
			"bufferView":55,
			"componentType":5126,
			"count":40,
			"max":[
				0.5,
				0.5,
				0.5
			],
			"min":[
				-0.5,
				-0.5,
				-0.5
			],
			"type":"VEC3"
		},
		{
			"bufferView":56,
			"componentType":5126,
			"count":40,
			"type":"VEC3"
		},
		{
			"bufferView":57,
			"componentType":5126,
			"count":40,
			"type":"VEC2"
		},
		{
			"bufferView":58,
			"componentType":5126,
			"count":40,
			"type":"VEC4"
		},
		{
			"bufferView":59,
			"componentType":5126,
			"count":48,
			"max":[
				1.5,
				0.5,
				0.5
			],
			"min":[
				-0.5,
				-0.5,
				-0.5
			],
			"type":"VEC3"
		},
		{
			"bufferView":60,
			"componentType":5126,
			"count":48,
			"type":"VEC3"
		},
		{
			"bufferView":61,
			"componentType":5126,
			"count":48,
			"type":"VEC2"
		},
		{
			"bufferView":62,
			"componentType":5126,
			"count":48,
			"type":"VEC4"
		},
		{
			"bufferView":63,
			"componentType":5123,
			"count":72,
			"type":"SCALAR"
		},
		{
			"bufferView":64,
			"componentType":5126,
			"count":72,
			"max":[
				2.5,
				0.5,
				0.5
			],
			"min":[
				-0.5,
				-0.5,
				-0.5
			],
			"type":"VEC3"
		},
		{
			"bufferView":65,
			"componentType":5126,
			"count":72,
			"type":"VEC3"
		},
		{
			"bufferView":66,
			"componentType":5126,
			"count":72,
			"type":"VEC2"
		},
		{
			"bufferView":67,
			"componentType":5126,
			"count":72,
			"type":"VEC4"
		},
		{
			"bufferView":68,
			"componentType":5123,
			"count":108,
			"type":"SCALAR"
		},
		{
			"bufferView":69,
			"componentType":5126,
			"count":24,
			"max":[
				0.5,
				0.5,
				0.5
			],
			"min":[
				-0.5,
				-0.5,
				-0.5
			],
			"type":"VEC3"
		},
		{
			"bufferView":70,
			"componentType":5126,
			"count":24,
			"type":"VEC3"
		},
		{
			"bufferView":71,
			"componentType":5126,
			"count":24,
			"type":"VEC2"
		},
		{
			"bufferView":72,
			"componentType":5126,
			"count":24,
			"type":"VEC4"
		},
		{
			"bufferView":73,
			"componentType":5126,
			"count":24,
			"max":[
				0.5,
				0.5,
				0.5
			],
			"min":[
				-0.5,
				-0.5,
				-0.5
			],
			"type":"VEC3"
		},
		{
			"bufferView":74,
			"componentType":5126,
			"count":24,
			"type":"VEC3"
		},
		{
			"bufferView":75,
			"componentType":5126,
			"count":24,
			"type":"VEC2"
		},
		{
			"bufferView":76,
			"componentType":5126,
			"count":24,
			"type":"VEC4"
		}
	],
	"bufferViews":[
		{
			"buffer":0,
			"byteLength":3360,
			"byteOffset":0,
			"target":34962
		},
		{
			"buffer":0,
			"byteLength":3360,
			"byteOffset":3360,
			"target":34962
		},
		{
			"buffer":0,
			"byteLength":2240,
			"byteOffset":6720,
			"target":34962
		},
		{
			"buffer":0,
			"byteLength":4480,
			"byteOffset":8960,
			"target":34962
		},
		{
			"buffer":0,
			"byteLength":840,
			"byteOffset":13440,
			"target":34963
		},
		{
			"buffer":0,
			"byteLength":155520,
			"byteOffset":14280,
			"target":34962
		},
		{
			"buffer":0,
			"byteLength":155520,
			"byteOffset":169800,
			"target":34962
		},
		{
			"buffer":0,
			"byteLength":103680,
			"byteOffset":325320,
			"target":34962
		},
		{
			"buffer":0,
			"byteLength":207360,
			"byteOffset":429000,
			"target":34962
		},
		{
			"buffer":0,
			"byteLength":38880,
			"byteOffset":636360,
			"target":34963
		},
		{
			"buffer":0,
			"byteLength":3360,
			"byteOffset":675240,
			"target":34962
		},
		{
			"buffer":0,
			"byteLength":3360,
			"byteOffset":678600,
			"target":34962
		},
		{
			"buffer":0,
			"byteLength":2240,
			"byteOffset":681960,
			"target":34962
		},
		{
			"buffer":0,
			"byteLength":4480,
			"byteOffset":684200,
			"target":34962
		},
		{
			"buffer":0,
			"byteLength":840,
			"byteOffset":688680,
			"target":34963
		},
		{
			"buffer":0,
			"byteLength":2304,
			"byteOffset":689520,
			"target":34962
		},
		{
			"buffer":0,
			"byteLength":2304,
			"byteOffset":691824,
			"target":34962
		},
		{
			"buffer":0,
			"byteLength":1536,
			"byteOffset":694128,
			"target":34962
		},
		{
			"buffer":0,
			"byteLength":3072,
			"byteOffset":695664,
			"target":34962
		},
		{
			"buffer":0,
			"byteLength":576,
			"byteOffset":698736,
			"target":34963
		},
		{
			"buffer":0,
			"byteLength":4344,
			"byteOffset":699312,
			"target":34962
		},
		{
			"buffer":0,
			"byteLength":4344,
			"byteOffset":703656,
			"target":34962
		},
		{
			"buffer":0,
			"byteLength":2896,
			"byteOffset":708000,
			"target":34962
		},
		{
			"buffer":0,
			"byteLength":1092,
			"byteOffset":710896,
			"target":34963
		},
		{
			"buffer":0,
			"byteLength":288,
			"byteOffset":711988,
			"target":34962
		},
		{
			"buffer":0,
			"byteLength":288,
			"byteOffset":712276,
			"target":34962
		},
		{
			"buffer":0,
			"byteLength":192,
			"byteOffset":712564,
			"target":34962
		},
		{
			"buffer":0,
			"byteLength":384,
			"byteOffset":712756,
			"target":34962
		},
		{
			"buffer":0,
			"byteLength":72,
			"byteOffset":713140,
			"target":34963
		},
		{
			"buffer":0,
			"byteLength":960,
			"byteOffset":713212,
			"target":34962
		},
		{
			"buffer":0,
			"byteLength":960,
			"byteOffset":714172,
			"target":34962
		},
		{
			"buffer":0,
			"byteLength":640,
			"byteOffset":715132,
			"target":34962
		},
		{
			"buffer":0,
			"byteLength":1280,
			"byteOffset":715772,
			"target":34962
		},
		{
			"buffer":0,
			"byteLength":240,
			"byteOffset":717052,
			"target":34963
		},
		{
			"buffer":0,
			"byteLength":288,
			"byteOffset":717292,
			"target":34962
		},
		{
			"buffer":0,
			"byteLength":288,
			"byteOffset":717580,
			"target":34962
		},
		{
			"buffer":0,
			"byteLength":192,
			"byteOffset":717868,
			"target":34962
		},
		{
			"buffer":0,
			"byteLength":384,
			"byteOffset":718060,
			"target":34962
		},
		{
			"buffer":0,
			"byteLength":960,
			"byteOffset":718444,
			"target":34962
		},
		{
			"buffer":0,
			"byteLength":960,
			"byteOffset":719404,
			"target":34962
		},
		{
			"buffer":0,
			"byteLength":640,
			"byteOffset":720364,
			"target":34962
		},
		{
			"buffer":0,
			"byteLength":1280,
			"byteOffset":721004,
			"target":34962
		},
		{
			"buffer":0,
			"byteLength":288,
			"byteOffset":722284,
			"target":34962
		},
		{
			"buffer":0,
			"byteLength":288,
			"byteOffset":722572,
			"target":34962
		},
		{
			"buffer":0,
			"byteLength":192,
			"byteOffset":722860,
			"target":34962
		},
		{
			"buffer":0,
			"byteLength":384,
			"byteOffset":723052,
			"target":34962
		},
		{
			"buffer":0,
			"byteLength":480,
			"byteOffset":723436,
			"target":34962
		},
		{
			"buffer":0,
			"byteLength":480,
			"byteOffset":723916,
			"target":34962
		},
		{
			"buffer":0,
			"byteLength":320,
			"byteOffset":724396,
			"target":34962
		},
		{
			"buffer":0,
			"byteLength":640,
			"byteOffset":724716,
			"target":34962
		},
		{
			"buffer":0,
			"byteLength":120,
			"byteOffset":725356,
			"target":34963
		},
		{
			"buffer":0,
			"byteLength":288,
			"byteOffset":725476,
			"target":34962
		},
		{
			"buffer":0,
			"byteLength":288,
			"byteOffset":725764,
			"target":34962
		},
		{
			"buffer":0,
			"byteLength":192,
			"byteOffset":726052,
			"target":34962
		},
		{
			"buffer":0,
			"byteLength":384,
			"byteOffset":726244,
			"target":34962
		},
		{
			"buffer":0,
			"byteLength":480,
			"byteOffset":726628,
			"target":34962
		},
		{
			"buffer":0,
			"byteLength":480,
			"byteOffset":727108,
			"target":34962
		},
		{
			"buffer":0,
			"byteLength":320,
			"byteOffset":727588,
			"target":34962
		},
		{
			"buffer":0,
			"byteLength":640,
			"byteOffset":727908,
			"target":34962
		},
		{
			"buffer":0,
			"byteLength":576,
			"byteOffset":728548,
			"target":34962
		},
		{
			"buffer":0,
			"byteLength":576,
			"byteOffset":729124,
			"target":34962
		},
		{
			"buffer":0,
			"byteLength":384,
			"byteOffset":729700,
			"target":34962
		},
		{
			"buffer":0,
			"byteLength":768,
			"byteOffset":730084,
			"target":34962
		},
		{
			"buffer":0,
			"byteLength":144,
			"byteOffset":730852,
			"target":34963
		},
		{
			"buffer":0,
			"byteLength":864,
			"byteOffset":730996,
			"target":34962
		},
		{
			"buffer":0,
			"byteLength":864,
			"byteOffset":731860,
			"target":34962
		},
		{
			"buffer":0,
			"byteLength":576,
			"byteOffset":732724,
			"target":34962
		},
		{
			"buffer":0,
			"byteLength":1152,
			"byteOffset":733300,
			"target":34962
		},
		{
			"buffer":0,
			"byteLength":216,
			"byteOffset":734452,
			"target":34963
		},
		{
			"buffer":0,
			"byteLength":288,
			"byteOffset":734668,
			"target":34962
		},
		{
			"buffer":0,
			"byteLength":288,
			"byteOffset":734956,
			"target":34962
		},
		{
			"buffer":0,
			"byteLength":192,
			"byteOffset":735244,
			"target":34962
		},
		{
			"buffer":0,
			"byteLength":384,
			"byteOffset":735436,
			"target":34962
		},
		{
			"buffer":0,
			"byteLength":288,
			"byteOffset":735820,
			"target":34962
		},
		{
			"buffer":0,
			"byteLength":288,
			"byteOffset":736108,
			"target":34962
		},
		{
			"buffer":0,
			"byteLength":192,
			"byteOffset":736396,
			"target":34962
		},
		{
			"buffer":0,
			"byteLength":384,
			"byteOffset":736588,
			"target":34962
		}
	],
	"buffers":[
		{
			"byteLength":736972,
			"uri":"Brick_wall_1-0100ab8324c4e4c421155ce4a660b3c8.bin"
		}
	]
}
