{
	"asset":{
		"generator":"Khronos glTF Blender I/O v4.4.56",
		"version":"2.0"
	},
	"scene":0,
	"scenes":[
		{
			"name":"Scene",
			"nodes":[
				0,
				1,
				2,
				3,
				4
			]
		}
	],
	"nodes":[
		{
			"mesh":0,
			"name":"Pedastal"
		},
		{
			"mesh":1,
			"name":"Cube",
			"scale":[
				1.0399999618530273,
				0.125,
				1.0399999618530273
			],
			"translation":[
				0,
				-0.125,
				0
			]
		},
		{
			"mesh":2,
			"name":"Cube.001",
			"scale":[
				0.8476358652114868,
				0.17187932133674622,
				0.8476358652114868
			],
			"translation":[
				0,
				-0.271664559841156,
				0
			]
		},
		{
			"mesh":3,
			"name":"Cylinder",
			"scale":[
				1.2573964595794678,
				1,
				1.2573964595794678
			],
			"translation":[
				0,
				-0.03400000184774399,
				0
			]
		},
		{
			"mesh":4,
			"name":"Cube.002",
			"scale":[
				0.8476358652114868,
				0.1498793214559555,
				0.8476358652114868
			],
			"translation":[
				0,
				-0.12037608027458191,
				0
			]
		}
	],
	"materials":[
		{
			"name":"Material_0",
			"pbrMetallicRoughness":{
				"baseColorFactor":[
					0.027211777865886688,
					0.027211777865886688,
					0.027211777865886688,
					1
				],
				"metallicFactor":0,
				"roughnessFactor":0.5
			}
		},
		{
			"name":"Material_1",
			"pbrMetallicRoughness":{
				"baseColorFactor":[
					0,
					0,
					0,
					1
				],
				"metallicFactor":0,
				"roughnessFactor":0.5
			}
		},
		{
			"name":"Material_2",
			"pbrMetallicRoughness":{
				"baseColorFactor":[
					0.05087607726454735,
					0.05087607726454735,
					0.05087607726454735,
					1
				],
				"metallicFactor":0,
				"roughnessFactor":0
			}
		},
		{
			"name":"Material_3"
		}
	],
	"meshes":[
		{
			"name":"Mesh_0",
			"primitives":[
				{
					"attributes":{
						"POSITION":0,
						"NORMAL":1,
						"TEXCOORD_0":2,
						"TANGENT":3
					},
					"indices":4,
					"material":0
				},
				{
					"attributes":{
						"POSITION":5,
						"NORMAL":6,
						"TEXCOORD_0":7,
						"TANGENT":8
					},
					"indices":9,
					"material":1
				},
				{
					"attributes":{
						"POSITION":10,
						"NORMAL":11,
						"TEXCOORD_0":12,
						"TANGENT":13
					},
					"indices":14,
					"material":2
				},
				{
					"attributes":{
						"POSITION":15,
						"NORMAL":16,
						"TEXCOORD_0":17,
						"TANGENT":18
					},
					"indices":19,
					"material":3
				}
			]
		},
		{
			"name":"Cube.001",
			"primitives":[
				{
					"attributes":{
						"POSITION":20,
						"NORMAL":21,
						"TEXCOORD_0":22
					},
					"indices":23
				}
			]
		},
		{
			"name":"Cube.002",
			"primitives":[
				{
					"attributes":{
						"POSITION":24,
						"NORMAL":25,
						"TEXCOORD_0":26,
						"TANGENT":27
					},
					"indices":28
				}
			]
		},
		{
			"name":"Cylinder",
			"primitives":[
				{
					"attributes":{
						"POSITION":29,
						"NORMAL":30,
						"TEXCOORD_0":31
					},
					"indices":32
				}
			]
		},
		{
			"name":"Cube.004",
			"primitives":[
				{
					"attributes":{
						"POSITION":33,
						"NORMAL":34,
						"TEXCOORD_0":35
					},
					"indices":36
				}
			]
		}
	],
	"accessors":[
		{
			"bufferView":0,
			"componentType":5126,
			"count":1542,
			"max":[
				0.4986000061035156,
				-0.024512022733688354,
				0.4986010193824768
			],
			"min":[
				-0.4986000061035156,
				-0.34693068265914917,
				-0.4986010193824768
			],
			"type":"VEC3"
		},
		{
			"bufferView":1,
			"componentType":5126,
			"count":1542,
			"type":"VEC3"
		},
		{
			"bufferView":2,
			"componentType":5126,
			"count":1542,
			"type":"VEC2"
		},
		{
			"bufferView":3,
			"componentType":5126,
			"count":1542,
			"type":"VEC4"
		},
		{
			"bufferView":4,
			"componentType":5123,
			"count":1542,
			"type":"SCALAR"
		},
		{
			"bufferView":5,
			"componentType":5126,
			"count":363,
			"max":[
				0.4154999852180481,
				-0.05205407738685608,
				0.41550081968307495
			],
			"min":[
				-0.4154999852180481,
				-0.060327619314193726,
				-0.41550081968307495
			],
			"type":"VEC3"
		},
		{
			"bufferView":6,
			"componentType":5126,
			"count":363,
			"type":"VEC3"
		},
		{
			"bufferView":7,
			"componentType":5126,
			"count":363,
			"type":"VEC2"
		},
		{
			"bufferView":8,
			"componentType":5126,
			"count":363,
			"type":"VEC4"
		},
		{
			"bufferView":9,
			"componentType":5123,
			"count":363,
			"type":"SCALAR"
		},
		{
			"bufferView":10,
			"componentType":5126,
			"count":540,
			"max":[
				0.3887808918952942,
				-0.05205407738685608,
				0.38878166675567627
			],
			"min":[
				-0.3887808918952942,
				-0.3200266361236572,
				-0.38878166675567627
			],
			"type":"VEC3"
		},
		{
			"bufferView":11,
			"componentType":5126,
			"count":540,
			"type":"VEC3"
		},
		{
			"bufferView":12,
			"componentType":5126,
			"count":540,
			"type":"VEC2"
		},
		{
			"bufferView":13,
			"componentType":5126,
			"count":540,
			"type":"VEC4"
		},
		{
			"bufferView":14,
			"componentType":5123,
			"count":540,
			"type":"SCALAR"
		},
		{
			"bufferView":15,
			"componentType":5126,
			"count":231,
			"max":[
				0.4000000059604645,
				-0.024512022733688354,
				0.40000081062316895
			],
			"min":[
				-0.4000000059604645,
				-0.05205407738685608,
				-0.40000081062316895
			],
			"type":"VEC3"
		},
		{
			"bufferView":16,
			"componentType":5126,
			"count":231,
			"type":"VEC3"
		},
		{
			"bufferView":17,
			"componentType":5126,
			"count":231,
			"type":"VEC2"
		},
		{
			"bufferView":18,
			"componentType":5126,
			"count":231,
			"type":"VEC4"
		},
		{
			"bufferView":19,
			"componentType":5123,
			"count":231,
			"type":"SCALAR"
		},
		{
			"bufferView":20,
			"componentType":5126,
			"count":127,
			"max":[
				0.48500001430511475,
				0.48500001430511475,
				0.48500001430511475
			],
			"min":[
				-0.48500001430511475,
				-0.48500001430511475,
				-0.48500001430511475
			],
			"type":"VEC3"
		},
		{
			"bufferView":21,
			"componentType":5126,
			"count":127,
			"type":"VEC3"
		},
		{
			"bufferView":22,
			"componentType":5126,
			"count":127,
			"type":"VEC2"
		},
		{
			"bufferView":23,
			"componentType":5123,
			"count":204,
			"type":"SCALAR"
		},
		{
			"bufferView":24,
			"componentType":5126,
			"count":216,
			"max":[
				0.48500001430511475,
				0.48500001430511475,
				0.48500001430511475
			],
			"min":[
				-0.48500001430511475,
				-0.48500001430511475,
				-0.48500001430511475
			],
			"type":"VEC3"
		},
		{
			"bufferView":25,
			"componentType":5126,
			"count":216,
			"type":"VEC3"
		},
		{
			"bufferView":26,
			"componentType":5126,
			"count":216,
			"type":"VEC2"
		},
		{
			"bufferView":27,
			"componentType":5126,
			"count":216,
			"type":"VEC4"
		},
		{
			"bufferView":28,
			"componentType":5123,
			"count":324,
			"type":"SCALAR"
		},
		{
			"bufferView":29,
			"componentType":5126,
			"count":384,
			"max":[
				0.33799999952316284,
				0.017500000074505806,
				0.33799999952316284
			],
			"min":[
				-0.33799999952316284,
				-0.017500000074505806,
				-0.33799999952316284
			],
			"type":"VEC3"
		},
		{
			"bufferView":30,
			"componentType":5126,
			"count":384,
			"type":"VEC3"
		},
		{
			"bufferView":31,
			"componentType":5126,
			"count":384,
			"type":"VEC2"
		},
		{
			"bufferView":32,
			"componentType":5123,
			"count":768,
			"type":"SCALAR"
		},
		{
			"bufferView":33,
			"componentType":5126,
			"count":472,
			"max":[
				0.4850000739097595,
				0.4850000739097595,
				0.4850000739097595
			],
			"min":[
				-0.4850000739097595,
				-0.48499995470046997,
				-0.4850000739097595
			],
			"type":"VEC3"
		},
		{
			"bufferView":34,
			"componentType":5126,
			"count":472,
			"type":"VEC3"
		},
		{
			"bufferView":35,
			"componentType":5126,
			"count":472,
			"type":"VEC2"
		},
		{
			"bufferView":36,
			"componentType":5123,
			"count":816,
			"type":"SCALAR"
		}
	],
	"bufferViews":[
		{
			"buffer":0,
			"byteLength":18504,
			"byteOffset":0,
			"target":34962
		},
		{
			"buffer":0,
			"byteLength":18504,
			"byteOffset":18504,
			"target":34962
		},
		{
			"buffer":0,
			"byteLength":12336,
			"byteOffset":37008,
			"target":34962
		},
		{
			"buffer":0,
			"byteLength":24672,
			"byteOffset":49344,
			"target":34962
		},
		{
			"buffer":0,
			"byteLength":3084,
			"byteOffset":74016,
			"target":34963
		},
		{
			"buffer":0,
			"byteLength":4356,
			"byteOffset":77100,
			"target":34962
		},
		{
			"buffer":0,
			"byteLength":4356,
			"byteOffset":81456,
			"target":34962
		},
		{
			"buffer":0,
			"byteLength":2904,
			"byteOffset":85812,
			"target":34962
		},
		{
			"buffer":0,
			"byteLength":5808,
			"byteOffset":88716,
			"target":34962
		},
		{
			"buffer":0,
			"byteLength":726,
			"byteOffset":94524,
			"target":34963
		},
		{
			"buffer":0,
			"byteLength":6480,
			"byteOffset":95252,
			"target":34962
		},
		{
			"buffer":0,
			"byteLength":6480,
			"byteOffset":101732,
			"target":34962
		},
		{
			"buffer":0,
			"byteLength":4320,
			"byteOffset":108212,
			"target":34962
		},
		{
			"buffer":0,
			"byteLength":8640,
			"byteOffset":112532,
			"target":34962
		},
		{
			"buffer":0,
			"byteLength":1080,
			"byteOffset":121172,
			"target":34963
		},
		{
			"buffer":0,
			"byteLength":2772,
			"byteOffset":122252,
			"target":34962
		},
		{
			"buffer":0,
			"byteLength":2772,
			"byteOffset":125024,
			"target":34962
		},
		{
			"buffer":0,
			"byteLength":1848,
			"byteOffset":127796,
			"target":34962
		},
		{
			"buffer":0,
			"byteLength":3696,
			"byteOffset":129644,
			"target":34962
		},
		{
			"buffer":0,
			"byteLength":462,
			"byteOffset":133340,
			"target":34963
		},
		{
			"buffer":0,
			"byteLength":1524,
			"byteOffset":133804,
			"target":34962
		},
		{
			"buffer":0,
			"byteLength":1524,
			"byteOffset":135328,
			"target":34962
		},
		{
			"buffer":0,
			"byteLength":1016,
			"byteOffset":136852,
			"target":34962
		},
		{
			"buffer":0,
			"byteLength":408,
			"byteOffset":137868,
			"target":34963
		},
		{
			"buffer":0,
			"byteLength":2592,
			"byteOffset":138276,
			"target":34962
		},
		{
			"buffer":0,
			"byteLength":2592,
			"byteOffset":140868,
			"target":34962
		},
		{
			"buffer":0,
			"byteLength":1728,
			"byteOffset":143460,
			"target":34962
		},
		{
			"buffer":0,
			"byteLength":3456,
			"byteOffset":145188,
			"target":34962
		},
		{
			"buffer":0,
			"byteLength":648,
			"byteOffset":148644,
			"target":34963
		},
		{
			"buffer":0,
			"byteLength":4608,
			"byteOffset":149292,
			"target":34962
		},
		{
			"buffer":0,
			"byteLength":4608,
			"byteOffset":153900,
			"target":34962
		},
		{
			"buffer":0,
			"byteLength":3072,
			"byteOffset":158508,
			"target":34962
		},
		{
			"buffer":0,
			"byteLength":1536,
			"byteOffset":161580,
			"target":34963
		},
		{
			"buffer":0,
			"byteLength":5664,
			"byteOffset":163116,
			"target":34962
		},
		{
			"buffer":0,
			"byteLength":5664,
			"byteOffset":168780,
			"target":34962
		},
		{
			"buffer":0,
			"byteLength":3776,
			"byteOffset":174444,
			"target":34962
		},
		{
			"buffer":0,
			"byteLength":1632,
			"byteOffset":178220,
			"target":34963
		}
	],
	"buffers":[
		{
			"byteLength":179852,
			"uri":"Egg_pedestal_project-2ee3a2daff1411d0fbcee1a4fe2e7079.bin"
		}
	]
}
