{
	"asset":{
		"generator":"Khronos glTF Blender I/O v4.4.56",
		"version":"2.0"
	},
	"extensionsUsed":[
		"KHR_materials_specular",
		"KHR_materials_sheen",
		"KHR_materials_ior"
	],
	"scene":0,
	"scenes":[
		{
			"name":"Scene",
			"nodes":[
				0
			]
		}
	],
	"nodes":[
		{
			"mesh":0,
			"name":"Base",
			"translation":[
				0,
				0.0006555728614330292,
				0
			]
		}
	],
	"materials":[
		{
			"doubleSided":true,
			"extensions":{
				"KHR_materials_specular":{
					"specularFactor":0
				},
				"KHR_materials_sheen":{
					"sheenColorFactor":[
						1.0,
						1.0,
						1.0
					],
					"sheenRoughnessFactor":0.5
				},
				"KHR_materials_ior":{
					"ior":1.4500000476837158
				}
			},
			"name":"Material.001",
			"pbrMetallicRoughness":{
				"baseColorFactor":[
					0.1912626475095749,
					0.17673829197883606,
					0.16370661556720734,
					1
				],
				"metallicFactor":0
			}
		}
	],
	"meshes":[
		{
			"name":"Cylinder",
			"primitives":[
				{
					"attributes":{
						"POSITION":0,
						"NORMAL":1,
						"TEXCOORD_0":2
					},
					"indices":3,
					"material":0
				}
			]
		}
	],
	"accessors":[
		{
			"bufferView":0,
			"componentType":5126,
			"count":4520,
			"max":[
				0.8433846235275269,
				0.1310955286026001,
				0.8395792841911316
			],
			"min":[
				-0.8496341705322266,
				-0.12120147794485092,
				-0.8398125171661377
			],
			"type":"VEC3"
		},
		{
			"bufferView":1,
			"componentType":5126,
			"count":4520,
			"type":"VEC3"
		},
		{
			"bufferView":2,
			"componentType":5126,
			"count":4520,
			"type":"VEC2"
		},
		{
			"bufferView":3,
			"componentType":5123,
			"count":7584,
			"type":"SCALAR"
		}
	],
	"bufferViews":[
		{
			"buffer":0,
			"byteLength":54240,
			"byteOffset":0,
			"target":34962
		},
		{
			"buffer":0,
			"byteLength":54240,
			"byteOffset":54240,
			"target":34962
		},
		{
			"buffer":0,
			"byteLength":36160,
			"byteOffset":108480,
			"target":34962
		},
		{
			"buffer":0,
			"byteLength":15168,
			"byteOffset":144640,
			"target":34963
		}
	],
	"buffers":[
		{
			"byteLength":159808,
			"uri":"Target-04fa799a23c27813533d949b56383e6f.bin"
		}
	]
}
