{"accessors":[{"bufferView":0,"byteOffset":0,"componentType":5126,"count":705,"max":[0.6,12,0.300863],"min":[-0.6,-12,-0.3],"normalized":false,"type":"VEC3"},{"bufferView":1,"byteOffset":0,"componentType":5126,"count":705,"max":[1,0.999993,1,1],"min":[-1,-1,-1,-1],"normalized":false,"type":"VEC4"},{"bufferView":2,"byteOffset":0,"componentType":5126,"count":705,"max":[1,1,1],"min":[-1,-1,-1],"normalized":false,"type":"VEC3"},{"bufferView":3,"byteOffset":0,"componentType":5126,"count":705,"max":[1,1],"min":[0,0],"normalized":false,"type":"VEC2"},{"bufferView":4,"byteOffset":0,"componentType":5125,"count":705,"max":[704],"min":[0],"normalized":false,"type":"SCALAR"},{"bufferView":5,"byteOffset":0,"componentType":5126,"count":1125,"max":[0.1205,12,1.2],"min":[-0.1205,-12,-1.2],"normalized":false,"type":"VEC3"},{"bufferView":6,"byteOffset":0,"componentType":5126,"count":1125,"max":[1,0.99999,1,1],"min":[-1,-1,-1,-1],"normalized":false,"type":"VEC4"},{"bufferView":7,"byteOffset":0,"componentType":5126,"count":1125,"max":[1,1,1],"min":[-1,-1,-1],"normalized":false,"type":"VEC3"},{"bufferView":8,"byteOffset":0,"componentType":5126,"count":1125,"max":[1,1.039333],"min":[0,0],"normalized":false,"type":"VEC2"},{"bufferView":9,"byteOffset":0,"componentType":5125,"count":1125,"max":[1124],"min":[0],"normalized":false,"type":"SCALAR"},{"bufferView":10,"byteOffset":0,"componentType":5126,"count":1128,"max":[0.1205,12,1.2],"min":[-0.1205,-12,-1.2],"normalized":false,"type":"VEC3"},{"bufferView":11,"byteOffset":0,"componentType":5126,"count":1128,"max":[1,1,0.996196,1],"min":[-1,-1,-1,-1],"normalized":false,"type":"VEC4"},{"bufferView":12,"byteOffset":0,"componentType":5126,"count":1128,"max":[1,1,1],"min":[-1,-1,-1],"normalized":false,"type":"VEC3"},{"bufferView":13,"byteOffset":0,"componentType":5126,"count":1128,"max":[1,1.04221],"min":[0,0],"normalized":false,"type":"VEC2"},{"bufferView":14,"byteOffset":0,"componentType":5125,"count":1128,"max":[1127],"min":[0],"normalized":false,"type":"SCALAR"},{"bufferView":15,"byteOffset":0,"componentType":5126,"count":36,"max":[1.8,0.24,0.18],"min":[-1.8,-0.24,-0.18],"normalized":false,"type":"VEC3"},{"bufferView":16,"byteOffset":0,"componentType":5126,"count":36,"max":[0,0,0.000076,-1],"min":[-1,-1,-1,-1],"normalized":false,"type":"VEC4"},{"bufferView":17,"byteOffset":0,"componentType":5126,"count":36,"max":[1,1,1],"min":[-1,-1,-1],"normalized":false,"type":"VEC3"},{"bufferView":18,"byteOffset":0,"componentType":5126,"count":36,"max":[1,1],"min":[0,0],"normalized":false,"type":"VEC2"},{"bufferView":19,"byteOffset":0,"componentType":5125,"count":36,"max":[35],"min":[0],"normalized":false,"type":"SCALAR"},{"bufferView":20,"byteOffset":0,"componentType":5126,"count":36,"max":[2.093085,0.1,1.6532],"min":[-2.093085,-0.1,-1.6532],"normalized":false,"type":"VEC3"},{"bufferView":21,"byteOffset":0,"componentType":5126,"count":36,"max":[0,0,0.000076,-1],"min":[-1,-1,-1,-1],"normalized":false,"type":"VEC4"},{"bufferView":22,"byteOffset":0,"componentType":5126,"count":36,"max":[1,1,1],"min":[-1,-1,-1],"normalized":false,"type":"VEC3"},{"bufferView":23,"byteOffset":0,"componentType":5126,"count":36,"max":[1,1],"min":[0,0],"normalized":false,"type":"VEC2"},{"bufferView":24,"byteOffset":0,"componentType":5125,"count":36,"max":[35],"min":[0],"normalized":false,"type":"SCALAR"},{"bufferView":25,"byteOffset":0,"componentType":5126,"count":36,"max":[1.2,0.12,0.9],"min":[-1.2,-0.12,-0.9],"normalized":false,"type":"VEC3"},{"bufferView":26,"byteOffset":0,"componentType":5126,"count":36,"max":[0,0,0.000076,-1],"min":[-1,-1,-1,-1],"normalized":false,"type":"VEC4"},{"bufferView":27,"byteOffset":0,"componentType":5126,"count":36,"max":[1,1,1],"min":[-1,-1,-1],"normalized":false,"type":"VEC3"},{"bufferView":28,"byteOffset":0,"componentType":5126,"count":36,"max":[1,1],"min":[0,0],"normalized":false,"type":"VEC2"},{"bufferView":29,"byteOffset":0,"componentType":5125,"count":36,"max":[35],"min":[0],"normalized":false,"type":"SCALAR"},{"bufferView":30,"byteOffset":0,"componentType":5126,"count":36,"max":[1.8,0.12,1.2],"min":[-1.8,-0.12,-1.2],"normalized":false,"type":"VEC3"},{"bufferView":31,"byteOffset":0,"componentType":5126,"count":36,"max":[0,0,0.000076,-1],"min":[-1,-1,-1,-1],"normalized":false,"type":"VEC4"},{"bufferView":32,"byteOffset":0,"componentType":5126,"count":36,"max":[1,1,1],"min":[-1,-1,-1],"normalized":false,"type":"VEC3"},{"bufferView":33,"byteOffset":0,"componentType":5126,"count":36,"max":[1,1],"min":[0,0],"normalized":false,"type":"VEC2"},{"bufferView":34,"byteOffset":0,"componentType":5125,"count":36,"max":[35],"min":[0],"normalized":false,"type":"SCALAR"}],"asset":{"generator":"Godot Engine v4.1.3.stable.official@f06b6836a9ecfd0e6ec96d8bcf0fe9c9bc10dcbf","version":"2.0"},"bufferViews":[{"buffer":0,"byteLength":8460,"byteOffset":0},{"buffer":0,"byteLength":11280,"byteOffset":8460},{"buffer":0,"byteLength":8460,"byteOffset":19740},{"buffer":0,"byteLength":5640,"byteOffset":28200},{"buffer":0,"byteLength":2820,"byteOffset":33840},{"buffer":0,"byteLength":13500,"byteOffset":36660},{"buffer":0,"byteLength":18000,"byteOffset":50160},{"buffer":0,"byteLength":13500,"byteOffset":68160},{"buffer":0,"byteLength":9000,"byteOffset":81660},{"buffer":0,"byteLength":4500,"byteOffset":90660},{"buffer":0,"byteLength":13536,"byteOffset":95160},{"buffer":0,"byteLength":18048,"byteOffset":108696},{"buffer":0,"byteLength":13536,"byteOffset":126744},{"buffer":0,"byteLength":9024,"byteOffset":140280},{"buffer":0,"byteLength":4512,"byteOffset":149304},{"buffer":0,"byteLength":432,"byteOffset":153816},{"buffer":0,"byteLength":576,"byteOffset":154248},{"buffer":0,"byteLength":432,"byteOffset":154824},{"buffer":0,"byteLength":288,"byteOffset":155256},{"buffer":0,"byteLength":144,"byteOffset":155544},{"buffer":0,"byteLength":432,"byteOffset":155688},{"buffer":0,"byteLength":576,"byteOffset":156120},{"buffer":0,"byteLength":432,"byteOffset":156696},{"buffer":0,"byteLength":288,"byteOffset":157128},{"buffer":0,"byteLength":144,"byteOffset":157416},{"buffer":0,"byteLength":432,"byteOffset":157560},{"buffer":0,"byteLength":576,"byteOffset":157992},{"buffer":0,"byteLength":432,"byteOffset":158568},{"buffer":0,"byteLength":288,"byteOffset":159000},{"buffer":0,"byteLength":144,"byteOffset":159288},{"buffer":0,"byteLength":432,"byteOffset":159432},{"buffer":0,"byteLength":576,"byteOffset":159864},{"buffer":0,"byteLength":432,"byteOffset":160440},{"buffer":0,"byteLength":288,"byteOffset":160872},{"buffer":0,"byteLength":144,"byteOffset":161160}],"buffers":[{"byteLength":161304,"uri":"tallBase0.bin"}],"extensions":{"OMI_collider":{"colliders":[{"type":""}]}},"extensionsUsed":["OMI_collider","OMI_physics_body"],"materials":[{"extensions":{},"pbrMetallicRoughness":{"baseColorFactor":[0.99999988079071,0.99999988079071,0.99999988079071,1],"metallicFactor":0,"roughnessFactor":1}},{"extensions":{},"pbrMetallicRoughness":{"baseColorFactor":[0.99999988079071,0.99999988079071,0.99999988079071,1],"metallicFactor":0,"roughnessFactor":1}},{"extensions":{},"pbrMetallicRoughness":{"baseColorFactor":[0.99999988079071,0.99999988079071,0.99999988079071,1],"metallicFactor":0,"roughnessFactor":1}},{"extensions":{},"pbrMetallicRoughness":{"baseColorFactor":[0.99999988079071,0.99999988079071,0.99999988079071,1],"metallicFactor":0,"roughnessFactor":1}},{"extensions":{},"pbrMetallicRoughness":{"baseColorFactor":[0.99999988079071,0.99999988079071,0.99999988079071,1],"metallicFactor":0,"roughnessFactor":1}},{"extensions":{},"pbrMetallicRoughness":{"baseColorFactor":[0.99999988079071,0.99999988079071,0.99999988079071,1],"metallicFactor":0,"roughnessFactor":1}},{"extensions":{},"pbrMetallicRoughness":{"baseColorFactor":[0.99999988079071,0.99999988079071,0.99999988079071,1],"metallicFactor":0,"roughnessFactor":1}}],"meshes":[{"extras":{"targetNames":[]},"primitives":[{"attributes":{"NORMAL":2,"POSITION":0,"TANGENT":1,"TEXCOORD_0":3},"indices":4,"material":0,"mode":4}]},{"extras":{"targetNames":[]},"primitives":[{"attributes":{"NORMAL":7,"POSITION":5,"TANGENT":6,"TEXCOORD_0":8},"indices":9,"material":1,"mode":4}]},{"extras":{"targetNames":[]},"primitives":[{"attributes":{"NORMAL":12,"POSITION":10,"TANGENT":11,"TEXCOORD_0":13},"indices":14,"material":2,"mode":4}]},{"extras":{"targetNames":[]},"primitives":[{"attributes":{"NORMAL":17,"POSITION":15,"TANGENT":16,"TEXCOORD_0":18},"indices":19,"material":3,"mode":4}]},{"extras":{"targetNames":[]},"primitives":[{"attributes":{"NORMAL":22,"POSITION":20,"TANGENT":21,"TEXCOORD_0":23},"indices":24,"material":4,"mode":4}]},{"extras":{"targetNames":[]},"primitives":[{"attributes":{"NORMAL":27,"POSITION":25,"TANGENT":26,"TEXCOORD_0":28},"indices":29,"material":5,"mode":4}]},{"extras":{"targetNames":[]},"primitives":[{"attributes":{"NORMAL":32,"POSITION":30,"TANGENT":31,"TEXCOORD_0":33},"indices":34,"material":6,"mode":4}]}],"nodes":[{"children":[1,14,18],"extensions":{},"name":"tallBase"},{"children":[2,3,6,10],"extensions":{"OMI_physics_body":{"type":"static"}},"name":"tallFrame"},{"extensions":{"OMI_collider":{"collider":0}},"name":"CollisionShape3D"},{"children":[4,5],"extensions":{},"mesh":0,"name":"centre2"},{"extensions":{},"name":"cylinder7","scale":[0.800000011920929,1,0.800000011920929],"translation":[0,0.100000001490116,0.301001995801926]},{"extensions":{},"name":"cylinder8","scale":[0.800000011920929,1,0.800000011920929],"translation":[0,0.100000001490116,-0.2922759950161]},{"children":[7,8,9],"extensions":{},"mesh":1,"name":"left2","translation":[-0.69999998807907,0,0]},{"extensions":{},"name":"cylinder3","translation":[-0.19645899534225,0.100000001490116,-1.23944997787476]},{"extensions":{},"name":"cylinder4","translation":[-0.18000000715256,0.100000001490116,1.10000002384186]},{"extensions":{},"name":"cylinder5","translation":[-0.17578700184822,0.100000001490116,-0.00395453022793]},{"children":[11,12,13],"extensions":{},"mesh":2,"name":"right2","translation":[0.699999988079071,0,0]},{"extensions":{},"name":"cylinder","translation":[0.203540995717049,0.100000001490116,-1.23944997787476]},{"extensions":{},"name":"cylinder2","translation":[0.180000007152557,0.100000001490116,1.10000002384186]},{"extensions":{},"name":"cylinder6","translation":[0.148665994405746,0.100000001490116,-0.00395453022793]},{"children":[15,16,17],"extensions":{"OMI_physics_body":{"type":"static"}},"name":"top","translation":[0,12,0]},{"extensions":{"OMI_collider":{"collider":0}},"name":"CollisionShape3D2"},{"extensions":{},"mesh":3,"name":"CSGBox3D2","translation":[0,0.239999994635582,0]},{"extensions":{},"mesh":4,"name":"CSGBox3D23"},{"children":[19,20,21],"extensions":{"OMI_physics_body":{"type":"static"}},"name":"base","translation":[0,-12.5032997131348,0]},{"extensions":{"OMI_collider":{"collider":0}},"name":"CollisionShape3D3"},{"extensions":{},"mesh":5,"name":"CSGBox3D4","translation":[0,0.365350008010864,0]},{"extensions":{},"mesh":6,"name":"CSGBox3D25","translation":[0,0.265349000692368,0]}],"scene":0,"scenes":[{"nodes":[0]}]}