{"accessors":[{"bufferView":0,"byteOffset":0,"componentType":5126,"count":1542,"max":[0.498600006103516,-0.0245120227336884,0.498601019382477],"min":[-0.498600006103516,-0.346930682659149,-0.498601019382477],"normalized":false,"type":"VEC3"},{"bufferView":1,"byteOffset":0,"componentType":5126,"count":1542,"max":[1.0,0.984818398952484,1.0,1.0],"min":[-1.0,-1.0,-0.999575555324554,-1.0],"normalized":false,"type":"VEC4"},{"bufferView":2,"byteOffset":0,"componentType":5126,"count":1542,"max":[1.0,1.0,1.0],"min":[-1.0,-1.0,-1.0],"normalized":false,"type":"VEC3"},{"bufferView":3,"byteOffset":0,"componentType":5126,"count":1542,"max":[1.0,1.0],"min":[0.0,0.0],"normalized":false,"type":"VEC2"},{"bufferView":4,"byteOffset":0,"componentType":5123,"count":1542,"max":[1541.0],"min":[0.0],"normalized":false,"type":"SCALAR"},{"bufferView":5,"byteOffset":0,"componentType":5126,"count":363,"max":[0.415499985218048,-0.0520540773868561,0.415500819683075],"min":[-0.415499985218048,-0.0603276193141937,-0.415500819683075],"normalized":false,"type":"VEC3"},{"bufferView":6,"byteOffset":0,"componentType":5126,"count":363,"max":[-0.0000152597203850746,0.0000457791611552238,1.0,-1.0],"min":[-1.0,-1.0,-0.0000457784626632929,-1.0],"normalized":false,"type":"VEC4"},{"bufferView":7,"byteOffset":0,"componentType":5126,"count":363,"max":[1.0,1.0,1.0],"min":[-1.0,-0.0000152592547237873,-1.0],"normalized":false,"type":"VEC3"},{"bufferView":8,"byteOffset":0,"componentType":5126,"count":363,"max":[1.0,1.0],"min":[0.0,0.0],"normalized":false,"type":"VEC2"},{"bufferView":9,"byteOffset":0,"componentType":5123,"count":363,"max":[362.0],"min":[0.0],"normalized":false,"type":"SCALAR"},{"bufferView":10,"byteOffset":0,"componentType":5126,"count":540,"max":[0.388780891895294,-0.0520540773868561,0.388781666755676],"min":[-0.388780891895294,-0.320026636123657,-0.388781666755676],"normalized":false,"type":"VEC3"},{"bufferView":11,"byteOffset":0,"componentType":5126,"count":540,"max":[0.999347627162933,0.0505836755037308,0.999918162822723,-1.0],"min":[-0.999918639659882,-0.0506238155066967,-0.999918103218079,-1.0],"normalized":false,"type":"VEC4"},{"bufferView":12,"byteOffset":0,"componentType":5126,"count":540,"max":[0.965544879436493,1.0,0.965544879436493],"min":[-0.965550899505615,0.258673280477524,-0.965540647506714],"normalized":false,"type":"VEC3"},{"bufferView":13,"byteOffset":0,"componentType":5126,"count":540,"max":[1.0,1.0],"min":[0.0,0.627042353153229],"normalized":false,"type":"VEC2"},{"bufferView":14,"byteOffset":0,"componentType":5123,"count":540,"max":[539.0],"min":[0.0],"normalized":false,"type":"SCALAR"},{"bufferView":15,"byteOffset":0,"componentType":5126,"count":231,"max":[0.400000005960464,-0.0245120227336884,0.400000810623169],"min":[-0.400000005960464,-0.0520540773868561,-0.400000810623169],"normalized":false,"type":"VEC3"},{"bufferView":16,"byteOffset":0,"componentType":5126,"count":231,"max":[0.999575972557068,0.0000646313783363439,0.999575018882751,1.0],"min":[-0.999576926231384,0.0,-0.999575555324554,-1.0],"normalized":false,"type":"VEC4"},{"bufferView":17,"byteOffset":0,"componentType":5126,"count":231,"max":[0.999575078487396,0.0000413462366850581,0.999575078487396],"min":[-0.999575972557068,-0.0000215431009564782,-0.999574601650238],"normalized":false,"type":"VEC3"},{"bufferView":18,"byteOffset":0,"componentType":5126,"count":231,"max":[0.972222208976746,1.0],"min":[0.0,0.724579930305481],"normalized":false,"type":"VEC2"},{"bufferView":19,"byteOffset":0,"componentType":5123,"count":231,"max":[230.0],"min":[0.0],"normalized":false,"type":"SCALAR"}],"asset":{"generator":"Godot Engine v4.4.1.stable.official@49a5bc7b616bd04689a2c89e89bda41f50241464","version":"2.0"},"bufferViews":[{"buffer":0,"byteLength":18504,"byteOffset":0,"byteStride":12,"target":34962},{"buffer":0,"byteLength":24672,"byteOffset":18504,"byteStride":16,"target":34962},{"buffer":0,"byteLength":18504,"byteOffset":43176,"byteStride":12,"target":34962},{"buffer":0,"byteLength":12336,"byteOffset":61680,"byteStride":8,"target":34962},{"buffer":0,"byteLength":3084,"byteOffset":74016,"target":34963},{"buffer":0,"byteLength":4356,"byteOffset":77100,"byteStride":12,"target":34962},{"buffer":0,"byteLength":5808,"byteOffset":81456,"byteStride":16,"target":34962},{"buffer":0,"byteLength":4356,"byteOffset":87264,"byteStride":12,"target":34962},{"buffer":0,"byteLength":2904,"byteOffset":91620,"byteStride":8,"target":34962},{"buffer":0,"byteLength":726,"byteOffset":94524,"target":34963},{"buffer":0,"byteLength":6480,"byteOffset":95252,"byteStride":12,"target":34962},{"buffer":0,"byteLength":8640,"byteOffset":101732,"byteStride":16,"target":34962},{"buffer":0,"byteLength":6480,"byteOffset":110372,"byteStride":12,"target":34962},{"buffer":0,"byteLength":4320,"byteOffset":116852,"byteStride":8,"target":34962},{"buffer":0,"byteLength":1080,"byteOffset":121172,"target":34963},{"buffer":0,"byteLength":2772,"byteOffset":122252,"byteStride":12,"target":34962},{"buffer":0,"byteLength":3696,"byteOffset":125024,"byteStride":16,"target":34962},{"buffer":0,"byteLength":2772,"byteOffset":128720,"byteStride":12,"target":34962},{"buffer":0,"byteLength":1848,"byteOffset":131492,"byteStride":8,"target":34962},{"buffer":0,"byteLength":462,"byteOffset":133340,"target":34963}],"buffers":[{"byteLength":133804,"uri":"Pedastal0.bin"}],"extensionsUsed":["GODOT_single_root"],"materials":[{"extensions":{},"pbrMetallicRoughness":{"baseColorFactor":[0.0272117778658867,0.0272117778658867,0.0272117778658867,1.0],"metallicFactor":0.0,"roughnessFactor":0.5}},{"extensions":{},"pbrMetallicRoughness":{"baseColorFactor":[0.0,0.0,0.0,1.0],"metallicFactor":0.0,"roughnessFactor":0.5}},{"extensions":{},"pbrMetallicRoughness":{"baseColorFactor":[0.0508760772645473,0.0508760772645473,0.0508760772645473,1.0],"metallicFactor":0.0,"roughnessFactor":0.0}},{}],"meshes":[{"extras":{"targetNames":[]},"primitives":[{"attributes":{"NORMAL":2,"POSITION":0,"TANGENT":1,"TEXCOORD_0":3},"indices":4,"material":0,"mode":4},{"attributes":{"NORMAL":7,"POSITION":5,"TANGENT":6,"TEXCOORD_0":8},"indices":9,"material":1,"mode":4},{"attributes":{"NORMAL":12,"POSITION":10,"TANGENT":11,"TEXCOORD_0":13},"indices":14,"material":2,"mode":4},{"attributes":{"NORMAL":17,"POSITION":15,"TANGENT":16,"TEXCOORD_0":18},"indices":19,"material":3,"mode":4}]}],"nodes":[{"mesh":0,"name":"Pedastal"}],"scene":0,"scenes":[{"nodes":[0]}]}